{"title":"One By Two DvD Scr (New Source - Audio Cleaned) {MaXX Releasers}","uid":9568786,"size":743516062,"categoryP":"video","categoryS":"movies","magnet":"?xt=urn:btih:07db9694fded649a7264c9821ebc4556a247daa5&amp;dn=One+By+Two+DvD+Scr+%28New+Source+-+Audio+Cleaned%29+%7BMaXX+Releasers%7D&amp;tr=udp%3A%2F%2Ftracker.openbittorrent.com%3A80&amp;tr=udp%3A%2F%2Fopen.demonii.com%3A1337&amp;tr=udp%3A%2F%2Ftracker.coppersurfer.tk%3A6969&amp;tr=udp%3A%2F%2Fexodus.desync.com%3A6969","seeders":1,"leechers":0,"uploader":"shailendramaxx","files":18,"time":1391577395,"description":"MaXX Releasers Presents:-\n\nComplete name :One By Two DvD Scr (New Source - Audio Cleaned) {MaXX Releasers}\n\nFormat : AVI \nFormat/Info : Audio Video Interleave \nFile size : 700 MiB \nDuration : 2h 10mn \nOverall bit rate : 750 Kbps \n\nVideo:-\n \nID : 0 \nFormat : MPEG-4 Visual \nFormat profile : Advanced Simple@L5 \nFormat settings, BVOP : 1 \nFormat settings, QPel : No \nFormat settings, GMC : No warppoints \nFormat settings, Matrix : Default (H.263) \nMuxing mode : Packed bitstream \nCodec ID : XVID \nCodec ID/Hint : XviD \nDuration : 2h 10mn \nBit rate : 664 Kbps \nWidth : 640 pixels \nHeight : 272 pixels \nDisplay aspect ratio : 2.35:1 \nFrame rate : 23.976 fps \nColor space : YUV \nChroma subsampling : 4:2:0 \nBit depth : 8 bits \nScan type : Progressive \nCompression mode : Lossy \nBits/(Pixel*Frame) : 0.159 \nStream size : 620 MiB (89%) \nWriting library : XviD 1.2.1 (UTC 2008-12-04) \n\nAudio:-\n \nID : 1 \nFormat : MPEG Audio \nFormat version : Version 1 \nFormat profile : Layer 3 \nMode : Joint stereo \nMode extension : MS Stereo \nCodec ID : 55 \nCodec ID/Hint : MP3 \nDuration : 2h 10mn \nBit rate mode : Constant \nBit rate : 80.0 Kbps \nChannel(s) : 2 channels \nSampling rate : 32.0 KHz \nCompression mode : Lossy \nStream size : 74.7 MiB (11%) \nAlignment : Aligned on interleaves \nInterleave, duration : 167 ms (4.00 video frames) \nInterleave, preload duration : 216 ms \nTitle : VTS_01_1 T80 2_0ch 192Kbps DELAY 0ms \nWriting library : LAME3.99r \nEncoding settings : -m j -V 4 -q 2 -lowpass 13.5 -b 80 \n\n\nSCREENS:-\n\n[URL=http://imgur.com/v6vARqd][IMG]http://i.imgur.com/v6vARqd.png[/IMG][/URL]\n\n[URL=http://imgur.com/2Ft1Opv][IMG]http://i.imgur.com/2Ft1Opv.png[/IMG][/URL]\n\n[URL=http://imgur.com/5pFbgG6][IMG]http://i.imgur.com/5pFbgG6.png[/IMG][/URL]\n\n[URL=http://imgur.com/LcSt0ar][IMG]http://i.imgur.com/LcSt0ar.png[/IMG][/URL]\n\n[URL=http://imgur.com/Z8l0Cum][IMG]http://i.imgur.com/Z8l0Cum.png[/IMG][/URL]\n\n[URL=http://imgur.com/Y86H7H4][IMG]http://i.imgur.com/Y86H7H4.png[/IMG][/URL]\n\n[URL=http://imgur.com/M2uXBBJ][IMG]http://i.imgur.com/M2uXBBJ.png[/IMG][/URL]\n\n[URL=http://imgur.com/1ffKI5c][IMG]http://i.imgur.com/1ffKI5c.png[/IMG][/URL]\n\n[URL=http://imgur.com/CQtcjCw][IMG]http://i.imgur.com/CQtcjCw.png[/IMG][/URL]\n\n[URL=http://imgur.com/0LkUirX][IMG]http://i.imgur.com/0LkUirX.png[/IMG][/URL]\n\n\n\n SCREENS AND SAMPLE INCLUDED\n   \n   \n                         ************ PLEASE SEED AFTER DOWNLOAD **********\n\n                         ********** THANK YOU REGARDS VIKKYMAXX ***********\t","torrent":{"xt":"urn:btih:07db9694fded649a7264c9821ebc4556a247daa5","amp;dn":"One+By+Two+DvD+Scr+%28New+Source+-+Audio+Cleaned%29+%7BMaXX+Releasers%7D","amp;tr":["udp%3A%2F%2Ftracker.openbittorrent.com%3A80","udp%3A%2F%2Fopen.demonii.com%3A1337","udp%3A%2F%2Ftracker.coppersurfer.tk%3A6969","udp%3A%2F%2Fexodus.desync.com%3A6969"],"infoHash":"07db9694fded649a7264c9821ebc4556a247daa5","infoHashBuffer":{"type":"Buffer","data":[7,219,150,148,253,237,100,154,114,100,201,130,30,188,69,86,162,71,218,165]},"announce":[],"urlList":[]}}